<svg xmlns="http://www.w3.org/2000/svg" viewBox="0 0 1440 320"><path fill="#0099ff" fill-opacity="0.1" d="M0,32L10.9,26.7C21.8,21,44,11,65,21.3C87.3,32,109,64,131,96C152.7,128,175,160,196,192C218.2,224,240,256,262,256C283.6,256,305,224,327,229.3C349.1,235,371,277,393,266.7C414.5,256,436,192,458,154.7C480,117,502,107,524,96C545.5,85,567,75,589,106.7C610.9,139,633,213,655,245.3C676.4,277,698,267,720,256C741.8,245,764,235,785,240C807.3,245,829,267,851,250.7C872.7,235,895,181,916,138.7C938.2,96,960,64,982,96C1003.6,128,1025,224,1047,256C1069.1,288,1091,256,1113,224C1134.5,192,1156,160,1178,138.7C1200,117,1222,107,1244,90.7C1265.5,75,1287,53,1309,42.7C1330.9,32,1353,32,1375,32C1396.4,32,1418,32,1429,32L1440,32L1440,320L1429.1,320C1418.2,320,1396,320,1375,320C1352.7,320,1331,320,1309,320C1287.3,320,1265,320,1244,320C1221.8,320,1200,320,1178,320C1156.4,320,1135,320,1113,320C1090.9,320,1069,320,1047,320C1025.5,320,1004,320,982,320C960,320,938,320,916,320C894.5,320,873,320,851,320C829.1,320,807,320,785,320C763.6,320,742,320,720,320C698.2,320,676,320,655,320C632.7,320,611,320,589,320C567.3,320,545,320,524,320C501.8,320,480,320,458,320C436.4,320,415,320,393,320C370.9,320,349,320,327,320C305.5,320,284,320,262,320C240,320,218,320,196,320C174.5,320,153,320,131,320C109.1,320,87,320,65,320C43.6,320,22,320,11,320L0,320Z"></path></svg>